<?xml version="1.0" encoding="utf-8"?>
<!-- Generator: Adobe Illustrator 15.0.2, SVG Export Plug-In . SVG Version: 6.00 Build 0)  -->
<!DOCTYPE svg PUBLIC "-//W3C//DTD SVG 1.1//EN" "http://www.w3.org/Graphics/SVG/1.1/DTD/svg11.dtd">
<svg version="1.1" id="Layer_3" xmlns="http://www.w3.org/2000/svg" xmlns:xlink="http://www.w3.org/1999/xlink" x="0px" y="0px"
width="800px" height="800px" viewBox="0 0 800 800" enable-background="new 0 0 800 800" xml:space="preserve">
<circle id="BG" cx="400" cy="400" r="400"/>
<g id="Form">
	<path fill="#FFFFFF" d="M352.737,385.082c27.061-12.289,42.126-32.476,42.126-61.438c0-54.854-39.787-74.745-99.028-74.745H150
		v296.497h150.223c56.168,0,109.559-25.744,109.414-85.57C409.637,423.11,390.476,395.465,352.737,385.082z M212.312,298.485h69.773
		c24.428,0,46.807,5.853,46.807,34.082c0,24.722-17.698,34.959-41.541,34.959h-75.039V298.485L212.312,298.485z M291.008,497.564
		h-78.842v-80.89h80.159c29.254,0,47.1,11.847,47.1,42.128C339.425,489.229,317.923,497.564,291.008,497.564z"/>
	<path fill="#FFFFFF" d="M540.553,326.131c-68.019,0-115.118,48.711-115.118,112.632c0,66.263,44.32,112.338,115.118,112.338
		c50.902,0,90.397-26.476,107.803-76.793h-54.412c-3.804,13.311-26.477,32.768-51.196,32.768c-34.229,0-53.39-23.697-55.146-60.998
		h162.071C653.914,380.545,616.907,326.131,540.553,326.131z M487.454,407.896c0.879-16.674,12.141-37.297,51.197-37.297
		c29.984,0,43.59,7.459,49.001,37.297H487.454z"/>
	<rect x="483.066" y="268.791" fill="#FFFFFF" width="124.479" height="39.495"/>
</g>
</svg>
