<?xml version="1.0" encoding="utf-8"?>
<!-- Generator: Adobe Illustrator 15.0.2, SVG Export Plug-In . SVG Version: 6.00 Build 0)  -->
<!DOCTYPE svg PUBLIC "-//W3C//DTD SVG 1.1//EN" "http://www.w3.org/Graphics/SVG/1.1/DTD/svg11.dtd">
<svg version="1.1" id="Layer_1" xmlns="http://www.w3.org/2000/svg" xmlns:xlink="http://www.w3.org/1999/xlink" x="0px" y="0px"
width="800px" height="800px" viewBox="0 0 800 800" enable-background="new 0 0 800 800" xml:space="preserve">
<path id="BG" d="M707.715,0H92.285C41.322,0,0,41.315,0,92.293v615.364C0,758.661,41.322,800,92.285,800h615.43v-0.01
	c50.971,0,92.285-41.329,92.285-92.333V92.293C800,41.315,758.686,0,707.715,0z"/>
<g id="Form">
	<path fill="#FFFFFF" d="M399.998,553.829c84.971,0,153.859-68.896,153.859-153.857c0-84.977-68.889-153.838-153.859-153.838
		c-84.977,0-153.85,68.861-153.85,153.838C246.148,484.935,315.021,553.829,399.998,553.829z"/>
	<path fill="#FFFFFF" d="M646.135,399.972c0,135.97-110.193,246.165-246.137,246.165c-135.939,0-246.143-110.197-246.143-246.165
		c0-21.278,3.008-41.86,8.082-61.56H92.285v338.492c0,16.966,13.783,30.742,30.803,30.742H676.91
		c17.021,0,30.805-13.776,30.805-30.742V338.412h-69.646C643.139,358.111,646.135,378.693,646.135,399.972z"/>
	<path fill="#FFFFFF" d="M676.91,92.283h-92.285c-17,0-30.768,13.776-30.768,30.762v92.327c0,16.979,13.768,30.762,30.768,30.762
		h92.285c17.021,0,30.805-13.783,30.805-30.762v-92.327C707.715,106.06,693.932,92.283,676.91,92.283z"/>
</g>
</svg>
