<?xml version="1.0" encoding="utf-8"?>
<!-- Generator: Adobe Illustrator 15.0.2, SVG Export Plug-In . SVG Version: 6.00 Build 0)  -->
<!DOCTYPE svg PUBLIC "-//W3C//DTD SVG 1.1//EN" "http://www.w3.org/Graphics/SVG/1.1/DTD/svg11.dtd">
<svg version="1.1" id="Layer_1" xmlns="http://www.w3.org/2000/svg" xmlns:xlink="http://www.w3.org/1999/xlink" x="0px" y="0px"
width="800px" height="800px" viewBox="0 0 800 800" enable-background="new 0 0 800 800" xml:space="preserve">
<path id="BG" d="M740.744,0H59.053C26.461,0,0,25.839,0,57.639v684.636C0,774.132,26.461,800,59.053,800h681.691
	C773.369,800,800,774.132,800,742.274V57.639C800,25.839,773.369,0,740.744,0z"/>
<g id="Form">
	<path fill="#FFFFFF" d="M118.555,299.942h118.707v381.771H118.555V299.942z M177.915,110.142c37.934,0,68.765,30.831,68.765,68.779
		c0,37.992-30.831,68.822-68.765,68.822c-38.035,0-68.779-30.831-68.779-68.822C109.136,140.972,139.88,110.142,177.915,110.142"/>
	<path fill="#FFFFFF" d="M311.683,299.942h113.831v52.141h1.62c15.842-30.006,54.559-61.661,112.283-61.661
		c120.066,0,142.245,79.051,142.245,181.887v209.404H563.144V496.065c0-44.301-0.867-101.245-61.675-101.245
		c-61.748,0-71.166,48.235-71.166,98.032v188.86h-118.62V299.942L311.683,299.942z"/>
</g>
</svg>
