<?xml version="1.0" encoding="utf-8"?>
<!-- Generator: Adobe Illustrator 15.0.2, SVG Export Plug-In . SVG Version: 6.00 Build 0)  -->
<!DOCTYPE svg PUBLIC "-//W3C//DTD SVG 1.1//EN" "http://www.w3.org/Graphics/SVG/1.1/DTD/svg11.dtd">
<svg version="1.1" id="Layer_1" xmlns="http://www.w3.org/2000/svg" xmlns:xlink="http://www.w3.org/1999/xlink" x="0px" y="0px"
	 width="800px" height="800px" viewBox="0 0 800 800" enable-background="new 0 0 800 800" xml:space="preserve">
<circle id="BG" cx="400" cy="400" r="400"/>
<path id="Form" fill="#FFFFFF" d="M413.552,125c-156.382,0-235.15,112.134-235.15,205.497c0,56.53,21.547,106.805,67.416,125.569
	c7.415,3.244,14.132,0.23,16.451-8.107c1.622-5.793,5.096-20.389,6.718-26.412c2.316-8.342,1.389-11.121-4.635-18.303
	c-13.205-15.521-21.545-35.677-21.545-64.405c0-83.171,62.088-157.539,161.941-157.539c88.037,0,136.689,53.979,136.689,126.03
	c0,94.988-41.936,174.916-104.254,174.916c-34.289,0-60.005-28.496-51.896-63.248c9.729-41.701,28.96-86.646,28.96-116.766
	c0-26.872-14.365-49.347-44.25-49.347c-35.217,0-63.481,36.374-63.481,85.026c0,31.043,10.426,51.896,10.426,51.896
	s-34.981,152.906-42.396,179.318C262.268,611.982,277.79,675,277.79,675s51.662-47.031,63.016-86.879
	c4.171-14.596,23.169-90.355,23.169-90.355c11.583,21.779,44.944,41.008,80.393,41.008c105.644,0,177.463-96.377,177.23-225.42
	C621.598,215.818,539.121,125,413.552,125z"/>
</svg>
