<?xml version="1.0" encoding="utf-8"?>
<!-- Generator: Adobe Illustrator 15.0.2, SVG Export Plug-In . SVG Version: 6.00 Build 0)  -->
<!DOCTYPE svg PUBLIC "-//W3C//DTD SVG 1.1//EN" "http://www.w3.org/Graphics/SVG/1.1/DTD/svg11.dtd">
<svg version="1.1" id="Calque_1" xmlns="http://www.w3.org/2000/svg" xmlns:xlink="http://www.w3.org/1999/xlink" x="0px" y="0px"
width="800px" height="800px" viewBox="0 0 800 800" enable-background="new 0 0 800 800" xml:space="preserve">
<rect id="BG" width="800" height="800"/>
<path id="Form" fill="#FFFFFF" d="M519.393,549.069c-9.278,4.425-27.021,8.275-40.253,8.605
	c-39.948,1.067-47.699-28.059-48.022-49.177V353.174h100.202v-75.549h-99.856V150.521c0,0-71.9,0-73.072,0
	c-1.204,0-3.305,1.053-3.601,3.726c-4.274,38.901-22.476,107.175-98.175,134.476v64.447h50.499V516.19
	c0,55.822,41.176,135.126,149.874,133.256c36.676-0.629,77.405-15.979,86.396-29.233L519.393,549.069"/>
</svg>
