<?xml version="1.0" encoding="utf-8"?>
<!-- Generator: Adobe Illustrator 15.0.2, SVG Export Plug-In . SVG Version: 6.00 Build 0)  -->
<!DOCTYPE svg PUBLIC "-//W3C//DTD SVG 1.1//EN" "http://www.w3.org/Graphics/SVG/1.1/DTD/svg11.dtd">
<svg version="1.1" id="Layer_1" xmlns="http://www.w3.org/2000/svg" xmlns:xlink="http://www.w3.org/1999/xlink" x="0px" y="0px"
	 width="800px" height="800px" viewBox="0 0 800 800" enable-background="new 0 0 800 800" xml:space="preserve">
<circle id="BG" cx="400" cy="400" r="400"/>
<g id="Form">
	<path fill="#FFFFFF" d="M201.979,328.865h82.937v266.729h-82.937V328.865z M243.452,196.26c26.501,0,48.043,21.542,48.043,48.053
		c0,26.543-21.542,48.084-48.043,48.084c-26.574,0-48.054-21.542-48.054-48.084C195.398,217.801,216.878,196.26,243.452,196.26"/>
	<path fill="#FFFFFF" d="M336.908,328.865h79.53v36.431h1.131c11.071-20.965,38.123-43.083,78.448-43.083
		c83.889,0,99.382,55.232,99.382,127.075v146.307h-82.804V465.89c0-30.952-0.602-70.735-43.092-70.735
		c-43.137,0-49.715,33.701-49.715,68.492v131.947h-82.88V328.865L336.908,328.865z"/>
</g>
</svg>
