<?xml version="1.0" encoding="utf-8"?>
<!-- Generator: Adobe Illustrator 15.0.2, SVG Export Plug-In . SVG Version: 6.00 Build 0)  -->
<!DOCTYPE svg PUBLIC "-//W3C//DTD SVG 1.1//EN" "http://www.w3.org/Graphics/SVG/1.1/DTD/svg11.dtd">
<svg version="1.1" id="Layer_3" xmlns="http://www.w3.org/2000/svg" xmlns:xlink="http://www.w3.org/1999/xlink" x="0px" y="0px"
	 width="800px" height="800px" viewBox="0 0 800 800" enable-background="new 0 0 800 800" xml:space="preserve">
<circle id="BG" cx="400" cy="400" r="400"/>
<g id="Form">
	<path fill="#FFFFFF" d="M484.723,169.547H227v460.906c0,0,12.291,0,19.013,0c20.548-34.376,58.573-86.229,101.977-86.229
		c27.077,0,143.456,0,143.456,0C594.957,544.225,647,448.393,647,356.406C647,259.614,580.553,169.547,484.723,169.547z
		 M473.967,488.917c0,0-94.869,0-114.266,0c-18.437,0-75.281,0.577-75.281,0.577V223.51h184.746
		c68.752,0,113.498,63.762,113.498,132.318C582.664,421.124,548.098,488.917,473.967,488.917z"/>
	<polygon fill="#FFFFFF" points="443.049,256.157 408.288,256.157 408.288,338.932 325.519,338.932 325.519,373.689 
		408.288,373.689 408.288,456.46 443.049,456.46 443.049,373.689 525.818,373.689 525.818,338.932 443.049,338.932 	"/>
</g>
</svg>
